<?xml version="1.0" encoding="UTF-8"?>
<svg id="Layer_3" xmlns="http://www.w3.org/2000/svg" version="1.1" viewBox="0 0 999.99998 1844.4016">
  <!-- Generator: Adobe Illustrator 30.0.0, SVG Export Plug-In . SVG Version: 2.1.1 Build 123)  -->
  <defs>
    <style>
      .st0 {
        fill: #345dad;
      }

      .st1 {
        fill: #4490fe;
      }

      .st2 {
        fill: #d7f8ff;
      }
    </style>
  </defs>
  <g>
    <path class="st1" d="M659.79384,360.40039c72.39294,35.88361,119.75806,95.51233,119.75806,162.99353,0,43.17297-19.39655,83.1236-52.33942,115.69104,79.87-66.22986,130.7077-166.18463,130.7077-278.02759,0-121.35352-59.84772-228.7229-151.66846-294.17053,43.86121,35.03894,70.51581,81.24646,70.51581,131.86523,0,66.60522-46.14502,125.57697-116.97369,161.64832Z"/>
    <path class="st1" d="M321.57442,676.75177c-62.19409-36.47803-101.86316-91.63306-101.86316-153.35785,0-66.60522,46.14502-125.57697,117.005-161.64832-72.39294-35.88361-119.75806-95.51233-119.75806-162.99353,0-50.74377,26.77979-97.04529,70.89124-132.14685-92.00842,65.44775-152.04388,172.94214-152.04388,294.45215,0,135.77582,74.95831,254.06348,185.76886,315.6944Z"/>
    <path class="st1" d="M290.66511,1101.47357c48.3349-17.20667,98.98492-16.6748,144.53552-1.53296l26.52948-56.96954c71.04767-152.54443,286.41187-156.76788,363.37238-7.13293l143.59698,279.15381c1.93964,3.78546,3.75415,7.57092,5.44354,11.38763-4.81781-12.42004-10.38654-24.77753-16.67474-37.00983l-125.38928-243.70819c-144.4104-280.81195-548.54681-272.89691-681.85114,13.35858l-114.2832,245.33502c-11.73175,25.21545-20.46021,50.8064-26.37305,76.42859,18.73956-34.72601,37.13501-68.73254,53.71594-99.32904,42.79755-79.02527,113.31335-139.40485,198.00116-169.53204l29.3764-10.4491Z"/>
    <path class="st1" d="M986.18764,1362.38837c28.34399,121.63507-62.72589,246.61768-196.06152,247.49365l-82.34143.56311c-27.59314,108.3078-154.98468,202.53748-261.35284,213.6123l-71.07892,2.62787c-45.42548,1.68939-90.72577-1.22009-135.21271-8.60327,43.5484,17.2066,91.50787,26.6546,142.59589,26.31049l239.60992-1.62683c256.06567-1.72064,429.03906-247.2121,363.84161-480.37732Z"/>
  </g>
  <g>
    <path class="st0" d="M659.79384,360.40039c70.82867-36.07135,116.97369-95.04309,116.97369-161.64832,0-50.61877-26.6546-96.82629-70.51581-131.86523-.12512-.12512-.25031-.21899-.37543-.28162C649.25093,26.3418,580.51832,2.0022,506.18574.12524c-3.09717-.09387-6.1944-.12524-9.32288-.12524s-6.22565.03137-9.32281.12524c-74.33258,1.87695-143.06519,26.21655-199.69061,66.47998-44.11145,35.10156-70.89124,81.40308-70.89124,132.14685,0,67.4812,47.36511,127.10992,119.75806,162.99353,45.89471-23.33838,102.14471-37.1037,162.93097-37.1037,59.56616,0,114.78375,13.20215,160.14661,35.75848Z"/>
    <path class="st0" d="M986.18764,1362.38837c-3.28485-11.79437-7.1955-23.58875-11.73175-35.28925-.09387-.25024-.18774-.46924-.31287-.71954-1.68939-3.81671-3.50391-7.60217-5.44354-11.38763l-143.59698-279.15381c-76.96051-149.63495-292.32471-145.4115-363.37238,7.13293l-26.52948,56.96954c56.40643,18.73956,104.99164,59.87897,131.7088,117.5368l131.52112,284.03424c16.76862,36.19641,18.45795,73.33142,9.35413,108.93347l82.34143-.56311c133.33563-.87598,224.40552-125.85858,196.06152-247.49365Z"/>
  </g>
  <g>
    <path class="st2" d="M659.79384,360.40039c-45.89471,23.33844-102.14471,37.1037-162.93097,37.1037-59.56616,0-114.78375-13.20215-160.14661-35.75848-70.85999,36.07135-117.005,95.04309-117.005,161.64832,0,61.72479,39.66907,116.87982,101.86316,153.35785,1.06372.59442,2.09607,1.22009,3.19104,1.78326,30.5965,16.61218,63.88348,28.96967,99.01624,36.19641l5.91284,1.12628c20.11609,3.69159,41.10815,5.81897,62.72589,6.1944,1.84583.03125,3.69165.06256,5.53741.06256,87.12805-.25031,166.99799-31.3786,229.25464-83.02972,32.94287-32.56744,52.33942-72.51807,52.33942-115.69104,0-67.4812-47.36511-127.10992-119.75806-162.99353Z"/>
    <path class="st2" d="M330.89729,1323.93939l104.30334-223.99878c-45.5506-15.14185-96.20062-15.67371-144.53552,1.53296l-29.3764,10.4491c-84.68781,30.1272-155.20361,90.50677-198.00116,169.53204-16.58093,30.5965-34.97638,64.60303-53.71594,99.32904-42.45337,184.07953,60.22314,370.06732,230.5686,437.29828,44.48694,7.38318,89.78723,10.29266,135.21271,8.60327l71.07892-2.62787c106.36816-11.07483,233.7597-105.3045,261.35284-213.6123l-192.11969,1.28265c-148.53998,1.00116-247.49365-153.10754-184.7677-287.78839Z"/>
  </g>
</svg>